<svg id="SVGDoc" width="14" height="14" xmlns="http://www.w3.org/2000/svg" version="1.1" xmlns:xlink="http://www.w3.org/1999/xlink" xmlns:avocode="https://avocode.com/" viewBox="0 0 14 14"><defs><path d="M1127.17146,35.89998c0,-2.60578 2.11996,-4.72852 4.7285,-4.72852c2.60574,0 4.72863,2.12274 4.72863,4.72852c0,2.60574 -2.12289,4.72569 -4.72863,4.72569c-2.60854,0 -4.7285,-2.11995 -4.7285,-4.72569zM1136.46288,39.64003c0.83425,-1.01713 1.33703,-2.32002 1.33703,-3.74005c0,-3.25713 -2.64285,-5.89998 -5.89995,-5.89998c-3.25989,0 -5.89996,2.64285 -5.89996,5.89998c0,3.25709 2.64007,5.89994 5.89996,5.89994c1.42007,0 2.71999,-0.5 3.73717,-1.33425l3.36564,3.36285c0.22864,0.22864 0.59725,0.22864 0.82575,0c0.22864,-0.22575 0.22864,-0.59711 0,-0.82282z" id="Path-0"/></defs><desc>Generated with Avocode.</desc><g transform="matrix(1,0,0,1,-1126,-30)"><g clip-path="url(#clip-41D0B776-627D-47B8-9737-6AEB07153908)"><title>Fill 1</title><use xlink:href="#Path-0" fill="#878989" fill-opacity="1"/></g></g></svg>